<svg version="1.1" id="Layer_1" xmlns="http://www.w3.org/2000/svg" xmlns:xlink="http://www.w3.org/1999/xlink" x="0px" y="0px"
	 width="100%" viewBox="0 0 2000 2000" enable-background="new 0 0 2000 2000" xml:space="preserve">
<path fill="#000000" opacity="1.000000" stroke="none" 
	d="
M1146.000000,2001.000000 
	C764.000000,2001.000000 382.500000,2001.000000 1.000000,2001.000000 
	C1.000000,1334.333374 1.000000,667.666687 1.000000,1.000000 
	C667.666687,1.000000 1334.333374,1.000000 2001.000000,1.000000 
	C2001.000000,667.666687 2001.000000,1334.333374 2001.000000,2001.000000 
	C1716.166626,2001.000000 1431.333374,2001.000000 1146.000000,2001.000000 
M921.595398,1110.223022 
	C917.135864,1106.409058 912.568481,1102.713379 908.237122,1098.758911 
	C895.603271,1087.224609 883.061279,1075.589600 870.487549,1063.989380 
	C852.243469,1047.157837 834.073730,1030.244873 815.738220,1013.513550 
	C801.895935,1000.882385 787.679382,988.658264 773.948364,975.909485 
	C766.068115,968.593018 758.332703,961.004333 751.425842,952.786926 
	C743.870850,943.798401 726.683838,941.920288 719.727844,949.606750 
	C714.839722,955.008240 709.892883,960.358521 704.885986,965.650085 
	C697.295593,973.671997 689.617981,981.611267 681.999390,989.606506 
	C669.051270,1003.194885 656.361328,1017.041626 643.063660,1030.278198 
	C637.722717,1035.594849 635.126648,1041.993042 634.272400,1048.727173 
	C633.147095,1057.597290 637.410583,1064.978149 644.280884,1070.752563 
	C649.198120,1074.885498 654.190247,1078.954956 658.830261,1083.386475 
	C668.021606,1092.164551 676.867310,1101.305664 686.083862,1110.056396 
	C700.051025,1123.317871 714.187988,1136.401123 728.299255,1149.510132 
	C740.281372,1160.641235 752.360840,1171.667358 764.337952,1182.803711 
	C775.018616,1192.734619 785.681458,1202.686279 796.235962,1212.750610 
	C807.055542,1223.067749 817.745667,1233.520508 828.466248,1243.941040 
	C831.275513,1246.671631 833.891785,1249.605347 836.761597,1252.268066 
	C846.514099,1261.316895 856.340393,1270.286133 866.509460,1279.896973 
	C870.038452,1283.581909 873.409546,1287.435425 877.126892,1290.919434 
	C887.198364,1300.359009 897.713806,1309.343384 907.492188,1319.072021 
	C916.937012,1328.468872 927.543884,1329.998535 939.482239,1325.648071 
	C942.602295,1324.510986 946.134705,1323.203491 948.248596,1320.863770 
	C953.500549,1315.050659 958.057068,1308.607300 962.868164,1302.397949 
	C968.910034,1294.600464 974.781555,1286.665527 980.995300,1279.007935 
	C987.382080,1271.137207 994.101868,1263.536987 1000.658081,1255.803345 
	C1004.655823,1251.087402 1008.470154,1246.206787 1012.626892,1241.636719 
	C1026.701416,1226.162598 1041.081299,1210.962280 1054.974243,1195.328125 
	C1064.979370,1184.069092 1074.259033,1172.168335 1084.121582,1160.778320 
	C1090.408325,1153.517822 1097.369019,1146.841064 1103.667236,1139.589844 
	C1111.804810,1130.220947 1119.346680,1120.330566 1127.570801,1111.041748 
	C1140.347412,1096.611572 1153.538208,1082.549072 1166.449341,1068.236816 
	C1177.322876,1056.183228 1188.048218,1043.996094 1199.210571,1031.250854 
	C1202.841553,1027.470947 1206.606934,1023.809998 1210.079956,1019.890015 
	C1223.667969,1004.553345 1237.193237,989.160767 1250.682861,973.737305 
	C1259.130127,964.078918 1267.308838,954.181030 1275.904907,944.658569 
	C1285.458008,934.075684 1295.524536,923.955261 1305.052124,913.350281 
	C1320.232178,896.453613 1334.927979,879.118469 1350.246948,862.351013 
	C1364.157837,847.125122 1378.903320,832.659912 1392.757446,817.384705 
	C1402.815186,806.295166 1411.823608,794.261353 1421.649048,782.951843 
	C1437.032715,765.244263 1452.666748,747.752991 1468.277466,730.243835 
	C1485.549683,710.871216 1502.894531,691.563049 1520.253052,672.267578 
	C1525.303833,666.653198 1526.466675,653.032043 1522.932373,647.334412 
	C1514.859131,634.319092 1504.114746,623.923950 1491.921265,614.981506 
	C1484.075195,609.227295 1473.624756,607.280823 1464.808228,613.716248 
	C1457.633911,618.952942 1450.589722,624.393311 1443.758423,630.068909 
	C1427.734131,643.382446 1411.819092,656.829163 1395.962646,670.342651 
	C1385.277344,679.449280 1374.803955,688.804138 1364.169678,697.971191 
	C1351.200317,709.151184 1338.117310,720.199280 1325.175903,731.411255 
	C1320.241577,735.686096 1315.689575,740.402710 1310.745850,744.665771 
	C1294.199829,758.934021 1277.419312,772.933228 1260.995483,787.339844 
	C1249.523926,797.402283 1238.544189,808.023376 1227.240112,818.279785 
	C1219.375977,825.415100 1211.209351,832.218994 1203.405640,839.417908 
	C1194.569824,847.568787 1186.007446,856.015259 1177.291504,864.296692 
	C1167.902466,873.217712 1158.406738,882.027283 1149.080566,891.013306 
	C1139.955688,899.805481 1130.953979,908.726501 1121.959351,917.652588 
	C1116.220337,923.347839 1110.592773,929.155518 1104.178223,934.979187 
	C1095.807495,942.247131 1087.232056,949.295349 1079.122192,956.843628 
	C1070.659302,964.720398 1062.704956,973.140747 1054.416870,981.208801 
	C1046.873535,988.551819 1039.015259,995.576782 1031.595947,1003.040405 
	C1022.815186,1011.873718 1014.660217,1021.342896 1005.690186,1029.970825 
	C990.565613,1044.518433 974.780396,1058.381104 959.711609,1072.984253 
	C947.218323,1085.091553 935.360107,1097.853882 923.197754,1110.303833 
	C922.908203,1110.600220 922.349365,1110.633545 921.595398,1110.223022 
z"/>
<path fill="#F9E31B" opacity="1.000000" stroke="none" 
	d="
M1104.915283,934.912842 
	C1110.592773,929.155518 1116.220337,923.347839 1121.959351,917.652588 
	C1130.953979,908.726501 1139.955688,899.805481 1149.080566,891.013306 
	C1158.406738,882.027283 1167.902466,873.217712 1177.291504,864.296692 
	C1186.007446,856.015259 1194.569824,847.568787 1203.405640,839.417908 
	C1211.209351,832.218994 1219.375977,825.415100 1227.240112,818.279785 
	C1238.544189,808.023376 1249.523926,797.402283 1260.995483,787.339844 
	C1277.419312,772.933228 1294.199829,758.934021 1310.745850,744.665771 
	C1315.689575,740.402710 1320.241577,735.686096 1325.175903,731.411255 
	C1338.117310,720.199280 1351.200317,709.151184 1364.169678,697.971191 
	C1374.803955,688.804138 1385.277344,679.449280 1395.962646,670.342651 
	C1411.819092,656.829163 1427.734131,643.382446 1443.758423,630.068909 
	C1450.589722,624.393311 1457.633911,618.952942 1464.808228,613.716248 
	C1473.624756,607.280823 1484.075195,609.227295 1491.921265,614.981506 
	C1504.114746,623.923950 1514.859131,634.319092 1522.932373,647.334412 
	C1526.466675,653.032043 1525.303833,666.653198 1520.253052,672.267578 
	C1502.894531,691.563049 1485.549683,710.871216 1468.277466,730.243835 
	C1452.666748,747.752991 1437.032715,765.244263 1421.649048,782.951843 
	C1411.823608,794.261353 1402.815186,806.295166 1392.757446,817.384705 
	C1378.903320,832.659912 1364.157837,847.125122 1350.246948,862.351013 
	C1334.927979,879.118469 1320.232178,896.453613 1305.052124,913.350281 
	C1295.524536,923.955261 1285.458008,934.075684 1275.904907,944.658569 
	C1267.308838,954.181030 1259.130127,964.078918 1250.682861,973.737305 
	C1237.193237,989.160767 1223.667969,1004.553345 1210.079956,1019.890015 
	C1206.606934,1023.809998 1202.841553,1027.470947 1198.639893,1031.586792 
	C1196.478516,1032.599854 1194.600708,1032.939819 1193.343750,1034.009277 
	C1185.497925,1040.685303 1177.791016,1047.524536 1170.038086,1054.309814 
	C1169.871094,1052.543091 1170.455444,1051.437500 1171.246582,1050.507812 
	C1177.460693,1043.205811 1183.802856,1036.009644 1189.863037,1028.583008 
	C1190.806152,1027.427368 1190.517822,1025.266968 1190.798950,1023.571228 
	C1188.838867,1023.411377 1186.697998,1022.691223 1184.969238,1023.248718 
	C1183.225708,1023.810852 1181.701538,1025.476807 1180.419922,1026.953125 
	C1178.321777,1029.369873 1175.971313,1028.896484 1174.402832,1027.039551 
	C1171.889038,1024.063354 1169.693604,1022.098083 1165.643921,1024.555420 
	C1164.890015,1025.012817 1163.011841,1023.595398 1161.643433,1023.067078 
	C1159.813599,1022.360779 1157.943970,1021.749023 1156.146484,1020.969604 
	C1152.731323,1019.488647 1149.109619,1018.289368 1146.042114,1016.263733 
	C1143.683838,1014.706421 1142.848511,1012.330811 1144.055054,1008.869629 
	C1144.766968,1006.827454 1143.072021,1001.935669 1141.510986,1001.464050 
	C1135.157593,999.544006 1133.343506,993.559082 1129.293213,989.679565 
	C1126.916504,987.403137 1124.655151,985.006653 1122.292969,982.714600 
	C1119.690674,980.189270 1115.511963,978.126465 1114.718018,975.143982 
	C1113.112671,969.114197 1111.060913,962.758362 1114.203491,956.213440 
	C1115.706421,953.083435 1117.014160,948.916260 1116.182861,945.816101 
	C1114.700439,940.287354 1114.927246,938.275452 1120.019043,935.456726 
	C1122.036499,934.339966 1123.835571,932.483948 1125.147583,930.563660 
	C1125.968750,929.361877 1125.696167,927.412842 1125.914307,925.799133 
	C1124.010376,925.734070 1121.729004,924.971680 1120.283936,925.754089 
	C1117.560669,927.228516 1115.488281,929.867126 1112.827881,931.506775 
	C1110.409302,932.997498 1107.569458,933.804443 1104.915283,934.912842 
M1119.493408,944.729858 
	C1119.764038,944.404358 1120.034546,944.078857 1120.305054,943.753357 
	C1119.874756,943.632996 1119.444580,943.512695 1119.014282,943.392395 
	C1119.014038,943.798340 1119.013794,944.204346 1119.493408,944.729858 
z"/>
<path fill="#F88E57" opacity="1.000000" stroke="none" 
	d="
M1104.546753,934.946045 
	C1107.569458,933.804443 1110.409302,932.997498 1112.827881,931.506775 
	C1115.488281,929.867126 1117.560669,927.228516 1120.283936,925.754089 
	C1121.729004,924.971680 1124.010376,925.734070 1125.914307,925.799133 
	C1125.696167,927.412842 1125.968750,929.361877 1125.147583,930.563660 
	C1123.835571,932.483948 1122.036499,934.339966 1120.019043,935.456726 
	C1114.927246,938.275452 1114.700439,940.287354 1116.182861,945.816101 
	C1117.014160,948.916260 1115.706421,953.083435 1114.203491,956.213440 
	C1111.060913,962.758362 1113.112671,969.114197 1114.718018,975.143982 
	C1115.511963,978.126465 1119.690674,980.189270 1122.292969,982.714600 
	C1124.655151,985.006653 1126.916504,987.403137 1129.293213,989.679565 
	C1133.343506,993.559082 1135.157593,999.544006 1141.510986,1001.464050 
	C1143.072021,1001.935669 1144.766968,1006.827454 1144.055054,1008.869629 
	C1142.848511,1012.330811 1143.683838,1014.706421 1146.042114,1016.263733 
	C1149.109619,1018.289368 1152.731323,1019.488647 1156.146484,1020.969604 
	C1157.943970,1021.749023 1159.813599,1022.360779 1161.643433,1023.067078 
	C1163.011841,1023.595398 1164.890015,1025.012817 1165.643921,1024.555420 
	C1169.693604,1022.098083 1171.889038,1024.063354 1174.402832,1027.039551 
	C1175.971313,1028.896484 1178.321777,1029.369873 1180.419922,1026.953125 
	C1181.701538,1025.476807 1183.225708,1023.810852 1184.969238,1023.248718 
	C1186.697998,1022.691223 1188.838867,1023.411377 1190.798950,1023.571228 
	C1190.517822,1025.266968 1190.806152,1027.427368 1189.863037,1028.583008 
	C1183.802856,1036.009644 1177.460693,1043.205811 1171.246582,1050.507812 
	C1170.455444,1051.437500 1169.871094,1052.543091 1170.038086,1054.309814 
	C1177.791016,1047.524536 1185.497925,1040.685303 1193.343750,1034.009277 
	C1194.600708,1032.939819 1196.478516,1032.599854 1198.454224,1031.895264 
	C1188.048218,1043.996094 1177.322876,1056.183228 1166.449341,1068.236816 
	C1153.538208,1082.549072 1140.347412,1096.611572 1127.570801,1111.041748 
	C1119.346680,1120.330566 1111.804810,1130.220947 1103.667236,1139.589844 
	C1097.369019,1146.841064 1090.408325,1153.517822 1084.121582,1160.778320 
	C1074.259033,1172.168335 1064.979370,1184.069092 1054.974243,1195.328125 
	C1041.081299,1210.962280 1026.701416,1226.162598 1012.626892,1241.636719 
	C1008.470154,1246.206787 1004.655823,1251.087402 1000.658081,1255.803345 
	C994.101868,1263.536987 987.382080,1271.137207 980.995300,1279.007935 
	C974.781555,1286.665527 968.910034,1294.600464 962.868164,1302.397949 
	C958.057068,1308.607300 953.500549,1315.050659 948.248596,1320.863770 
	C946.134705,1323.203491 942.602295,1324.510986 939.482239,1325.648071 
	C927.543884,1329.998535 916.937012,1328.468872 907.492188,1319.072021 
	C897.713806,1309.343384 887.198364,1300.359009 877.126892,1290.919434 
	C873.409546,1287.435425 870.038452,1283.581909 866.698486,1279.378784 
	C871.225220,1276.161865 875.590820,1276.393311 877.035828,1279.235962 
	C877.690857,1280.524658 878.716797,1281.731567 879.840515,1282.650024 
	C881.458252,1283.972290 883.482971,1284.811401 885.043091,1286.186646 
	C889.158081,1289.813965 893.116333,1293.619141 897.913391,1298.074585 
	C897.109070,1296.087524 896.914551,1294.733521 896.154602,1293.887573 
	C893.512451,1290.946533 890.874817,1287.943604 887.863342,1285.405884 
	C883.380371,1281.628174 883.311462,1274.588989 877.145630,1271.947632 
	C873.585022,1270.422241 871.343933,1267.443726 872.817505,1262.801147 
	C873.359924,1261.092041 872.354065,1258.932007 872.251221,1256.967285 
	C872.128052,1254.611816 872.082397,1252.234863 872.270508,1249.888550 
	C872.357849,1248.798950 873.723877,1247.484741 873.407715,1246.741211 
	C870.701233,1240.377197 871.305481,1234.221191 873.988647,1228.067139 
	C876.926941,1221.327637 875.086975,1214.337280 875.011658,1207.440063 
	C874.971375,1203.753784 876.467285,1201.149048 880.427856,1201.089600 
	C884.352905,1201.030762 884.670532,1198.802856 885.108826,1195.598145 
	C886.250366,1187.250854 887.898926,1178.970825 889.429138,1170.679443 
	C890.195435,1166.527466 891.091919,1162.396973 892.036011,1158.281250 
	C892.435608,1156.539185 892.586975,1154.108032 893.757629,1153.294922 
	C897.109741,1150.966187 896.708618,1147.806519 897.086182,1144.482178 
	C898.140564,1135.197632 902.981873,1127.616211 913.253296,1126.876221 
	C916.325256,1126.654907 919.439575,1125.611084 922.274597,1124.356689 
	C923.145264,1123.971191 923.585510,1121.598022 923.467346,1120.198975 
	C923.200684,1117.041260 922.462402,1113.923584 921.916077,1110.789551 
	C922.349365,1110.633545 922.908203,1110.600220 923.197754,1110.303833 
	C935.360107,1097.853882 947.218323,1085.091553 959.711609,1072.984253 
	C974.780396,1058.381104 990.565613,1044.518433 1005.690186,1029.970825 
	C1014.660217,1021.342896 1022.815186,1011.873718 1031.595947,1003.040405 
	C1039.015259,995.576782 1046.873535,988.551819 1054.416870,981.208801 
	C1062.704956,973.140747 1070.659302,964.720398 1079.122192,956.843628 
	C1087.232056,949.295349 1095.807495,942.247131 1104.546753,934.946045 
M899.791687,1299.367310 
	C899.982910,1299.209961 900.174133,1299.052490 900.365356,1298.895020 
	C900.270142,1298.792358 900.174927,1298.689697 900.079651,1298.587036 
	C899.909424,1298.767456 899.739136,1298.947876 899.791687,1299.367310 
z"/>
<path fill="#F54287" opacity="1.000000" stroke="none" 
	d="
M921.755737,1110.506348 
	C922.462402,1113.923584 923.200684,1117.041260 923.467346,1120.198975 
	C923.585510,1121.598022 923.145264,1123.971191 922.274597,1124.356689 
	C919.439575,1125.611084 916.325256,1126.654907 913.253296,1126.876221 
	C902.981873,1127.616211 898.140564,1135.197632 897.086182,1144.482178 
	C896.708618,1147.806519 897.109741,1150.966187 893.757629,1153.294922 
	C892.586975,1154.108032 892.435608,1156.539185 892.036011,1158.281250 
	C891.091919,1162.396973 890.195435,1166.527466 889.429138,1170.679443 
	C887.898926,1178.970825 886.250366,1187.250854 885.108826,1195.598145 
	C884.670532,1198.802856 884.352905,1201.030762 880.427856,1201.089600 
	C876.467285,1201.149048 874.971375,1203.753784 875.011658,1207.440063 
	C875.086975,1214.337280 876.926941,1221.327637 873.988647,1228.067139 
	C871.305481,1234.221191 870.701233,1240.377197 873.407715,1246.741211 
	C873.723877,1247.484741 872.357849,1248.798950 872.270508,1249.888550 
	C872.082397,1252.234863 872.128052,1254.611816 872.251221,1256.967285 
	C872.354065,1258.932007 873.359924,1261.092041 872.817505,1262.801147 
	C871.343933,1267.443726 873.585022,1270.422241 877.145630,1271.947632 
	C883.311462,1274.588989 883.380371,1281.628174 887.863342,1285.405884 
	C890.874817,1287.943604 893.512451,1290.946533 896.154602,1293.887573 
	C896.914551,1294.733521 897.109070,1296.087524 897.913391,1298.074585 
	C893.116333,1293.619141 889.158081,1289.813965 885.043091,1286.186646 
	C883.482971,1284.811401 881.458252,1283.972290 879.840515,1282.650024 
	C878.716797,1281.731567 877.690857,1280.524658 877.035828,1279.235962 
	C875.590820,1276.393311 871.225220,1276.161865 866.513000,1279.073242 
	C856.340393,1270.286133 846.514099,1261.316895 836.761597,1252.268066 
	C833.891785,1249.605347 831.275513,1246.671631 828.466248,1243.941040 
	C817.745667,1233.520508 807.055542,1223.067749 796.235962,1212.750610 
	C785.681458,1202.686279 775.018616,1192.734619 764.337952,1182.803711 
	C752.360840,1171.667358 740.281372,1160.641235 728.299255,1149.510132 
	C714.187988,1136.401123 700.051025,1123.317871 686.083862,1110.056396 
	C676.867310,1101.305664 668.021606,1092.164551 658.830261,1083.386475 
	C654.190247,1078.954956 649.198120,1074.885498 644.280884,1070.752563 
	C637.410583,1064.978149 633.147095,1057.597290 634.272400,1048.727173 
	C635.126648,1041.993042 637.722717,1035.594849 643.063660,1030.278198 
	C656.361328,1017.041626 669.051270,1003.194885 681.999390,989.606506 
	C689.617981,981.611267 697.295593,973.671997 704.885986,965.650085 
	C709.892883,960.358521 714.839722,955.008240 719.727844,949.606750 
	C726.683838,941.920288 743.870850,943.798401 751.425842,952.786926 
	C758.332703,961.004333 766.068115,968.593018 773.948364,975.909485 
	C787.679382,988.658264 801.895935,1000.882385 815.738220,1013.513550 
	C834.073730,1030.244873 852.243469,1047.157837 870.487549,1063.989380 
	C883.061279,1075.589600 895.603271,1087.224609 908.237122,1098.758911 
	C912.568481,1102.713379 917.135864,1106.409058 921.755737,1110.506348 
M893.795959,1135.919189 
	C894.744019,1135.880615 895.692078,1135.842041 896.640137,1135.803467 
	C896.479614,1135.055176 896.319092,1134.307007 896.158630,1133.558716 
	C895.277283,1134.145752 894.395996,1134.732666 893.795959,1135.919189 
z"/>
<path fill="#F88E57" opacity="1.000000" stroke="none" 
	d="
M1119.253418,944.670044 
	C1119.013794,944.204346 1119.014038,943.798340 1119.014282,943.392395 
	C1119.444580,943.512695 1119.874756,943.632996 1120.305054,943.753418 
	C1120.034546,944.078857 1119.764038,944.404358 1119.253418,944.670044 
z"/>
<path fill="#F54287" opacity="1.000000" stroke="none" 
	d="
M899.680298,1299.247803 
	C899.739136,1298.947876 899.909424,1298.767456 900.079712,1298.587036 
	C900.174927,1298.689697 900.270142,1298.792358 900.365356,1298.895020 
	C900.174133,1299.052490 899.982910,1299.209961 899.680298,1299.247803 
z"/>
<path fill="#F88E57" opacity="1.000000" stroke="none" 
	d="
M893.655273,1135.619385 
	C894.395996,1134.732666 895.277283,1134.145752 896.158630,1133.558716 
	C896.319092,1134.307007 896.479614,1135.055176 896.640137,1135.803467 
	C895.692078,1135.842041 894.744019,1135.880615 893.655273,1135.619385 
z"/>
</svg>